# Blender 4.0.1
# www.blender.org
mtllib untitled.mtl
o Plane_0
v 0.000000 0.008640 1.058720
v 0.245160 0.009970 1.065330
v 0.159600 1.293330 0.271570
v 0.000000 1.293330 0.271570
v 0.159600 1.293330 0.271570
v 0.245160 0.009970 1.065330
v 0.453210 -0.225040 0.608060
v 0.299630 1.085720 0.043430
v 0.000000 1.293330 0.271570
v 0.159600 1.293330 0.271570
v 0.431600 1.647020 0.336560
v 0.000000 1.647020 0.336560
v 0.299630 1.085720 0.043430
v 1.584130 0.946550 -0.414310
v 1.374650 1.608700 -0.229210
v 1.374650 1.608700 -0.229210
v 0.431600 1.647020 0.336560
v 0.159600 1.293330 0.271570
v 1.374650 1.608700 -0.229210
v 0.159600 1.293330 0.271570
v 0.299630 1.085720 0.043430
v 1.399930 -0.362420 -0.131140
v 1.584130 0.946550 -0.414310
v 0.299630 1.085720 0.043430
v 0.453210 -0.225040 0.608060
v 1.399930 -0.362420 -0.131140
v 0.453210 -0.225040 0.608060
v 0.688630 -1.055350 0.422850
v 0.990580 -1.217550 0.121050
v 0.990580 -1.217550 0.121050
v 0.688630 -1.055350 0.422850
v 0.436340 -1.303760 0.627420
v 0.402960 -1.966510 0.469450
v 0.402960 -1.966510 0.469450
v 0.436340 -1.303760 0.627420
v 0.119900 -1.387280 0.668290
v 0.173330 -1.905450 0.739060
v 0.173330 -1.905450 0.739060
v 0.119900 -1.387280 0.668290
v 0.000000 -1.387280 0.737370
v 0.000000 -1.905450 0.787150
v 0.000000 1.647020 0.336560
v 0.431600 1.647020 0.336560
v 0.622340 2.758580 -0.116340
v 0.000000 2.884700 -0.116340
v 0.453210 -0.225040 0.608060
v 0.245160 0.009970 1.065330
v 0.000000 -0.253020 0.951600
v 0.231500 -0.383950 0.743580
v 0.245160 0.009970 1.065330
v 0.000000 0.008640 1.058720
v 0.000000 -0.253020 0.951600
v 0.231500 -0.383950 0.743580
v 0.000000 -0.483420 0.695750
v 0.000000 -0.782490 0.843120
v 0.212970 -0.749080 0.792050
v 0.453210 -0.225040 0.608060
v 0.231500 -0.383950 0.743580
v 0.212970 -0.749080 0.792050
v 0.688630 -1.055350 0.422850
v 1.374650 1.608700 -0.229210
v 1.258080 2.507660 -0.480060
v 0.622340 2.758580 -0.116340
v 0.431600 1.647020 0.336560
v 0.436340 -1.303760 0.627420
v 0.688630 -1.055350 0.422850
v 0.227170 -1.152460 0.706440
v 0.119900 -1.387280 0.668290
v 0.436340 -1.303760 0.627420
v 0.227170 -1.152460 0.706440
v 0.227170 -1.152460 0.706440
v 0.000000 -1.173470 0.830820
v 0.000000 -1.387280 0.737370
v 0.227170 -1.152460 0.706440
v 0.000000 -1.387280 0.737370
v 0.119900 -1.387280 0.668290
v 0.000000 -1.173470 0.830820
v 0.227170 -1.152460 0.706440
v 0.225120 -0.953820 0.666840
v 0.000000 -0.966190 0.799350
v 0.227170 -1.152460 0.706440
v 0.688630 -1.055350 0.422850
v 0.225120 -0.953820 0.666840
v 0.000000 -0.782490 0.843120
v 0.000000 -0.966190 0.799350
v 0.225120 -0.953820 0.666840
v 0.212970 -0.749080 0.792050
v 0.212970 -0.749080 0.792050
v 0.225120 -0.953820 0.666840
v 0.688630 -1.055350 0.422850
v 1.584130 0.946550 -0.414310
v 1.828680 0.891880 -1.645000
v 1.592110 2.613210 -1.779831
v 1.592110 2.613210 -1.779831
v 1.258080 2.507660 -0.480060
v 1.374650 1.608700 -0.229210
v 1.592110 2.613210 -1.779831
v 1.374650 1.608700 -0.229210
v 1.584130 0.946550 -0.414310
v 1.399930 -0.362420 -0.131140
v 1.599980 -0.879210 -1.209690
v 1.828680 0.891880 -1.645000
v 1.584130 0.946550 -0.414310
v 1.305650 -1.611440 -0.498220
v 1.599980 -0.879210 -1.209690
v 1.399930 -0.362420 -0.131140
v 0.990580 -1.217550 0.121050
v 0.654470 -2.050970 -0.371600
v 1.305650 -1.611440 -0.498220
v 0.990580 -1.217550 0.121050
v 0.402960 -1.966510 0.469450
v 0.654470 -2.050970 -0.371600
v 0.402960 -1.966510 0.469450
v 0.173330 -1.905450 0.739060
v 0.173330 -1.905450 0.739060
v 0.000000 -1.905450 0.787150
v 0.000000 -2.135310 0.376480
v 0.173330 -1.905450 0.739060
v 0.000000 -2.135310 0.376480
v 0.654470 -2.050970 -0.371600
v 0.633580 3.438410 -1.626781
v 0.000000 3.522480 -1.564321
v 0.000000 2.884700 -0.116340
v 0.622340 2.758580 -0.116340
v 0.622340 2.758580 -0.116340
v 1.258080 2.507660 -0.480060
v 1.592110 2.613210 -1.779831
v 0.633580 3.438410 -1.626781
v 1.592110 2.613210 -1.779831
v 1.828680 0.891880 -1.645000
v 1.334040 2.494530 -3.532491
v 1.629710 -0.348500 -1.984560
v 1.828680 0.891880 -1.645000
v 1.599980 -0.879210 -1.209690
v 1.490130 -1.232450 -1.456380
v 1.394860 -1.610310 -0.912650
v 1.490130 -1.232450 -1.456380
v 1.599980 -0.879210 -1.209690
v 1.305650 -1.611440 -0.498220
v 0.654470 -2.050970 -0.371600
v 0.000000 -2.135310 0.376480
v 0.000000 -2.261220 -0.506770
v 1.560100 -0.223120 -2.882340
v 1.629710 -0.348500 -1.984560
v 1.438260 -1.791491 -2.464800
v 1.388210 -1.701331 -3.110370
v 0.654470 -2.050970 -0.371600
v 1.394860 -1.610310 -0.912650
v 1.305650 -1.611440 -0.498220
v 0.654470 -2.050970 -0.371600
v 0.000000 -2.261220 -0.506770
v 0.000000 -3.166901 -1.182050
v 0.817050 -3.015711 -1.360640
v 0.000000 3.522480 -1.564321
v 0.633580 3.438410 -1.626781
v 0.633280 2.918290 -3.728301
v 0.000000 2.952860 -3.809311
v 0.633580 3.438410 -1.626781
v 1.592110 2.613210 -1.779831
v 1.334040 2.494530 -3.532491
v 0.633280 2.918290 -3.728301
v 0.000000 -0.040601 -3.687531
v 0.726500 -0.128811 -3.608650
v 0.788780 -1.672291 -3.721610
v 0.000000 -1.707271 -3.824010
v 1.473000 1.043450 -3.768281
v 1.828680 0.891880 -1.645000
v 1.629710 -0.348500 -1.984560
v 1.560100 -0.223120 -2.882340
v 1.334040 2.494530 -3.532491
v 1.828680 0.891880 -1.645000
v 1.473000 1.043450 -3.768281
v 0.633280 2.918290 -3.728301
v 0.844730 1.148219 -4.300971
v 0.000000 1.210510 -4.351521
v 0.000000 2.952860 -3.809311
v 0.633280 2.918290 -3.728301
v 1.334040 2.494530 -3.532491
v 1.473000 1.043450 -3.768281
v 0.844730 1.148219 -4.300971
v 0.000000 1.210510 -4.351521
v 0.844730 1.148219 -4.300971
v 0.726500 -0.128811 -3.608650
v 0.000000 -0.040601 -3.687531
v 1.560100 -0.223120 -2.882340
v 0.726500 -0.128811 -3.608650
v 0.844730 1.148219 -4.300971
v 1.473000 1.043450 -3.768281
v 1.629710 -0.348500 -1.984560
v 1.490130 -1.232450 -1.456380
v 1.337890 -2.427130 -2.084990
v 1.438260 -1.791491 -2.464800
v 1.490130 -1.232450 -1.456380
v 1.394860 -1.610310 -0.912650
v 0.654470 -2.050970 -0.371600
v 0.654470 -2.050970 -0.371600
v 0.817050 -3.015711 -1.360640
v 1.337890 -2.427130 -2.084990
v 0.654470 -2.050970 -0.371600
v 1.337890 -2.427130 -2.084990
v 1.490130 -1.232450 -1.456380
v 1.560100 -0.223120 -2.882340
v 1.388210 -1.701331 -3.110370
v 0.788780 -1.672291 -3.721610
v 0.726500 -0.128811 -3.608650
v 0.231500 -0.383950 0.743580
v 0.000000 -0.253020 0.951600
v 0.000000 -0.483420 0.695750
v 0.000000 -1.707271 -3.824010
v 0.788780 -1.672291 -3.721610
v 1.388210 -1.701331 -3.110370
v 1.388210 -1.701331 -3.110370
v 1.438260 -1.791491 -2.464800
v 0.000000 -2.145820 -2.379360
v 1.388210 -1.701331 -3.110370
v 0.000000 -2.145820 -2.379360
v 0.000000 -1.707271 -3.824010
v 0.817050 -3.015711 -1.360640
v 0.000000 -3.166901 -1.182050
v 0.000000 -2.145820 -2.379360
v 0.000000 -2.145820 -2.379360
v 1.438260 -1.791491 -2.464800
v 1.337890 -2.427130 -2.084990
v 0.000000 -2.145820 -2.379360
v 1.337890 -2.427130 -2.084990
v 0.817050 -3.015711 -1.360640
v 0.000000 0.008640 1.058720
v 0.000000 1.293330 0.271570
v -0.159600 1.293330 0.271570
v -0.245160 0.009970 1.065330
v -0.159600 1.293330 0.271570
v -0.299630 1.085720 0.043430
v -0.453210 -0.225040 0.608060
v -0.245160 0.009970 1.065330
v -0.431600 1.647020 0.336560
v -0.159600 1.293330 0.271570
v -1.374650 1.608700 -0.229210
v -1.584130 0.946550 -0.414310
v -0.299630 1.085720 0.043430
v -0.299630 1.085720 0.043430
v -0.159600 1.293330 0.271570
v -0.431600 1.647020 0.336560
v -0.299630 1.085720 0.043430
v -0.431600 1.647020 0.336560
v -1.374650 1.608700 -0.229210
v -1.399930 -0.362420 -0.131140
v -0.453210 -0.225040 0.608060
v -0.299630 1.085720 0.043430
v -1.584130 0.946550 -0.414310
v -1.399930 -0.362420 -0.131140
v -0.990580 -1.217550 0.121050
v -0.688630 -1.055350 0.422850
v -0.453210 -0.225040 0.608060
v -0.990580 -1.217550 0.121050
v -0.402960 -1.966510 0.469450
v -0.436340 -1.303760 0.627420
v -0.688630 -1.055350 0.422850
v -0.402960 -1.966510 0.469450
v -0.173330 -1.905450 0.739060
v -0.119900 -1.387280 0.668290
v -0.436340 -1.303760 0.627420
v -0.173330 -1.905450 0.739060
v 0.000000 -1.905450 0.787150
v 0.000000 -1.387280 0.737370
v -0.119900 -1.387280 0.668290
v 0.000000 1.647020 0.336560
v 0.000000 2.884700 -0.116340
v -0.622340 2.758580 -0.116340
v -0.431600 1.647020 0.336560
v -0.453210 -0.225040 0.608060
v -0.231500 -0.383950 0.743580
v 0.000000 -0.253020 0.951600
v -0.245160 0.009970 1.065330
v -0.245160 0.009970 1.065330
v 0.000000 -0.253020 0.951600
v 0.000000 0.008640 1.058720
v -0.231500 -0.383950 0.743580
v -0.212970 -0.749080 0.792050
v 0.000000 -0.782490 0.843120
v 0.000000 -0.483420 0.695750
v -0.453210 -0.225040 0.608060
v -0.688630 -1.055350 0.422850
v -0.212970 -0.749080 0.792050
v -0.231500 -0.383950 0.743580
v -1.374650 1.608700 -0.229210
v -0.431600 1.647020 0.336560
v -0.622340 2.758580 -0.116340
v -1.258080 2.507660 -0.480060
v -0.436340 -1.303760 0.627420
v -0.227170 -1.152460 0.706440
v -0.688630 -1.055350 0.422850
v -0.227170 -1.152460 0.706440
v -0.436340 -1.303760 0.627420
v -0.119900 -1.387280 0.668290
v -0.119900 -1.387280 0.668290
v 0.000000 -1.387280 0.737370
v 0.000000 -1.173470 0.830820
v -0.119900 -1.387280 0.668290
v 0.000000 -1.173470 0.830820
v -0.227170 -1.152460 0.706440
v 0.000000 -1.173470 0.830820
v 0.000000 -0.966190 0.799350
v -0.225120 -0.953820 0.666840
v -0.227170 -1.152460 0.706440
v -0.227170 -1.152460 0.706440
v -0.225120 -0.953820 0.666840
v -0.688630 -1.055350 0.422850
v 0.000000 -0.782490 0.843120
v -0.212970 -0.749080 0.792050
v -0.225120 -0.953820 0.666840
v 0.000000 -0.966190 0.799350
v -0.212970 -0.749080 0.792050
v -0.688630 -1.055350 0.422850
v -0.225120 -0.953820 0.666840
v -1.592110 2.613210 -1.779831
v -1.828680 0.891880 -1.645000
v -1.584130 0.946550 -0.414310
v -1.584130 0.946550 -0.414310
v -1.374650 1.608700 -0.229210
v -1.258080 2.507660 -0.480060
v -1.584130 0.946550 -0.414310
v -1.258080 2.507660 -0.480060
v -1.592110 2.613210 -1.779831
v -1.399930 -0.362420 -0.131140
v -1.584130 0.946550 -0.414310
v -1.828680 0.891880 -1.645000
v -1.599980 -0.879210 -1.209690
v -1.305650 -1.611440 -0.498220
v -0.990580 -1.217550 0.121050
v -1.399930 -0.362420 -0.131140
v -1.599980 -0.879210 -1.209690
v -0.654470 -2.050970 -0.371600
v -0.402960 -1.966510 0.469450
v -0.990580 -1.217550 0.121050
v -1.305650 -1.611440 -0.498220
v -0.173330 -1.905450 0.739060
v -0.402960 -1.966510 0.469450
v -0.654470 -2.050970 -0.371600
v -0.654470 -2.050970 -0.371600
v 0.000000 -2.135310 0.376480
v 0.000000 -1.905450 0.787150
v -0.654470 -2.050970 -0.371600
v 0.000000 -1.905450 0.787150
v -0.173330 -1.905450 0.739060
v -0.633580 3.438410 -1.626781
v -0.622340 2.758580 -0.116340
v 0.000000 2.884700 -0.116340
v 0.000000 3.522480 -1.564321
v -0.622340 2.758580 -0.116340
v -0.633580 3.438410 -1.626781
v -1.592110 2.613210 -1.779831
v -1.258080 2.507660 -0.480060
v -1.592110 2.613210 -1.779831
v -1.334040 2.494530 -3.532491
v -1.828680 0.891880 -1.645000
v -1.629710 -0.348500 -1.984560
v -1.490130 -1.232450 -1.456380
v -1.599980 -0.879210 -1.209690
v -1.828680 0.891880 -1.645000
v -1.394860 -1.610310 -0.912650
v -1.305650 -1.611440 -0.498220
v -1.599980 -0.879210 -1.209690
v -1.490130 -1.232450 -1.456380
v -0.654470 -2.050970 -0.371600
v 0.000000 -2.261220 -0.506770
v 0.000000 -2.135310 0.376480
v -1.560100 -0.223120 -2.882340
v -1.388210 -1.701331 -3.110370
v -1.438260 -1.791491 -2.464800
v -1.629710 -0.348500 -1.984560
v -0.654470 -2.050970 -0.371600
v -1.305650 -1.611440 -0.498220
v -1.394860 -1.610310 -0.912650
v -0.654470 -2.050970 -0.371600
v -0.817050 -3.015711 -1.360640
v 0.000000 -3.166901 -1.182050
v 0.000000 -2.261220 -0.506770
v 0.000000 3.522480 -1.564321
v 0.000000 2.952860 -3.809311
v -0.633280 2.918290 -3.728301
v -0.633580 3.438410 -1.626781
v -0.633580 3.438410 -1.626781
v -0.633280 2.918290 -3.728301
v -1.334040 2.494530 -3.532491
v -1.592110 2.613210 -1.779831
v 0.000000 -0.040601 -3.687531
v 0.000000 -1.707271 -3.824010
v -0.788780 -1.672291 -3.721610
v -0.726500 -0.128811 -3.608650
v -1.473000 1.043450 -3.768281
v -1.560100 -0.223120 -2.882340
v -1.629710 -0.348500 -1.984560
v -1.828680 0.891880 -1.645000
v -1.334040 2.494530 -3.532491
v -1.473000 1.043450 -3.768281
v -1.828680 0.891880 -1.645000
v -0.633280 2.918290 -3.728301
v 0.000000 2.952860 -3.809311
v 0.000000 1.210510 -4.351521
v -0.844730 1.148219 -4.300971
v -0.633280 2.918290 -3.728301
v -0.844730 1.148219 -4.300971
v -1.473000 1.043450 -3.768281
v -1.334040 2.494530 -3.532491
v 0.000000 1.210510 -4.351521
v 0.000000 -0.040601 -3.687531
v -0.726500 -0.128811 -3.608650
v -0.844730 1.148219 -4.300971
v -1.560100 -0.223120 -2.882340
v -1.473000 1.043450 -3.768281
v -0.844730 1.148219 -4.300971
v -0.726500 -0.128811 -3.608650
v -1.629710 -0.348500 -1.984560
v -1.438260 -1.791491 -2.464800
v -1.337890 -2.427130 -2.084990
v -1.490130 -1.232450 -1.456380
v -0.654470 -2.050970 -0.371600
v -1.394860 -1.610310 -0.912650
v -1.490130 -1.232450 -1.456380
v -1.490130 -1.232450 -1.456380
v -1.337890 -2.427130 -2.084990
v -0.817050 -3.015711 -1.360640
v -1.490130 -1.232450 -1.456380
v -0.817050 -3.015711 -1.360640
v -0.654470 -2.050970 -0.371600
v -1.560100 -0.223120 -2.882340
v -0.726500 -0.128811 -3.608650
v -0.788780 -1.672291 -3.721610
v -1.388210 -1.701331 -3.110370
v -0.231500 -0.383950 0.743580
v 0.000000 -0.483420 0.695750
v 0.000000 -0.253020 0.951600
v -1.388210 -1.701331 -3.110370
v -0.788780 -1.672291 -3.721610
v 0.000000 -1.707271 -3.824010
v 0.000000 -1.707271 -3.824010
v 0.000000 -2.145820 -2.379360
v -1.438260 -1.791491 -2.464800
v 0.000000 -1.707271 -3.824010
v -1.438260 -1.791491 -2.464800
v -1.388210 -1.701331 -3.110370
v 0.000000 -2.145820 -2.379360
v 0.000000 -3.166901 -1.182050
v -0.817050 -3.015711 -1.360640
v -0.817050 -3.015711 -1.360640
v -1.337890 -2.427130 -2.084990
v -1.438260 -1.791491 -2.464800
v -0.817050 -3.015711 -1.360640
v -1.438260 -1.791491 -2.464800
v 0.000000 -2.145820 -2.379360
vn 0.3157 -0.1615 0.9350
vn 0.4379 -0.4768 0.7622
vn 0.4375 -0.5150 0.7372
vn -0.0229 -0.3788 0.9252
vn 0.4779 0.2159 0.8515
vn 0.1864 -0.2399 0.9527
vn 0.4743 -0.3526 0.8067
vn 0.4684 -0.3460 0.8129
vn 0.4884 0.1754 0.8548
vn 0.3242 -0.4795 0.8155
vn 0.9712 0.1481 0.1864
vn 0.9460 0.1949 0.2589
vn 0.9364 0.2197 0.2737
vn -0.2223 -0.9745 0.0314
vn 0.1343 -0.8647 0.4840
vn 0.4597 -0.8329 0.3083
vn 0.9806 0.1228 -0.1527
vn 0.2775 -0.9511 0.1356
vn 0.5714 -0.8117 0.1208
vn 0.9806 0.1192 -0.1558
vn 0.0826 -0.8251 -0.5589
vn 0.8723 -0.2706 0.4073
vn 0.8518 -0.3248 0.4111
vn 0.1781 -0.7312 0.6585
vn 0.0575 -0.9930 -0.1035
vn 0.2279 -0.9617 -0.1520
vn 0.1516 -0.9458 -0.2871
vn -0.0010 -0.7609 -0.6489
vn 0.0777 -0.5204 -0.8504
vn -0.0209 -0.7685 -0.6395
vn -0.3157 -0.1615 0.9350
vn -0.4658 -0.4932 0.7347
vn -0.4321 -0.4952 0.7537
vn 0.0229 -0.3788 0.9252
vn -0.4779 0.2159 0.8515
vn -0.1864 -0.2399 0.9527
vn -0.4669 -0.3542 0.8103
vn -0.4748 -0.3482 0.8083
vn -0.4884 0.1754 0.8548
vn -0.3242 -0.4795 0.8155
vn -0.9712 0.1481 0.1864
vn -0.9279 0.2069 0.3101
vn -0.9432 0.2079 0.2593
vn 0.2223 -0.9745 0.0314
vn -0.5570 -0.7247 0.4056
vn -0.0408 -0.9883 0.1472
vn -0.9806 0.1228 -0.1527
vn -0.2775 -0.9511 0.1356
vn -0.5714 -0.8117 0.1208
vn -0.9806 0.1192 -0.1558
vn -0.0826 -0.8251 -0.5589
vn -0.8732 -0.3094 0.3765
vn -0.8516 -0.2983 0.4310
vn -0.1781 -0.7312 0.6585
vn -0.0575 -0.9930 -0.1035
vn -0.2134 -0.9348 -0.2838
vn -0.0782 -0.9865 -0.1438
vn 0.0010 -0.7609 -0.6489
vn 0.6205 -0.3277 -0.7125
vn -0.1307 -0.6998 -0.7023
vn -0.0156 0.5238 0.8517
vn 0.9191 0.2460 0.3079
vn -0.0000 -0.1807 0.9835
vn 0.4811 0.2648 0.8357
vn 0.6350 -0.0349 0.7717
vn 0.6787 -0.1763 0.7129
vn 0.6788 -0.1763 0.7129
vn 0.4952 -0.0556 0.8670
vn 0.3681 0.1261 0.9212
vn 0.3681 0.1262 0.9212
vn 0.0426 0.3564 0.9334
vn 0.0427 0.3564 0.9334
vn 0.5262 -0.5488 0.6495
vn 0.5263 -0.5488 0.6495
vn -0.0779 0.2839 0.9557
vn -0.0779 0.2840 0.9557
vn 0.5882 0.0142 0.8086
vn 0.5248 0.2639 0.8093
vn 0.4794 0.1537 0.8640
vn 0.3925 -0.3565 0.8478
vn 0.3925 -0.3566 0.8478
vn 0.9747 -0.0821 0.2080
vn 0.9747 -0.0822 0.2080
vn 0.9110 -0.1781 0.3719
vn 0.7016 -0.5504 0.4525
vn 0.1706 0.8999 0.4014
vn 0.5979 0.7499 0.2830
vn 0.9838 -0.1634 -0.0741
vn 0.9678 -0.2333 0.0940
vn 0.9678 -0.2333 0.0941
vn 0.9907 -0.1012 -0.0909
vn 0.1804 -0.6451 0.7425
vn 0.1803 -0.6450 0.7426
vn 0.0940 0.9657 -0.2421
vn 0.5954 0.7852 -0.1701
vn 0.1211 0.0792 -0.9895
vn 0.1212 0.0792 -0.9895
vn 0.1212 0.0793 -0.9895
vn 0.9864 -0.0758 -0.1458
vn 0.1043 0.3066 -0.9461
vn 0.5415 0.2596 -0.7996
vn 0.0271 -0.4736 -0.8803
vn 0.0272 -0.4736 -0.8803
vn 0.0272 -0.4735 -0.8803
vn 0.5486 -0.4457 -0.7074
vn 0.9898 -0.1402 0.0268
vn 0.6838 0.0573 -0.7274
vn 0.0156 0.5238 0.8517
vn -0.9191 0.2460 0.3079
vn -0.4811 0.2648 0.8357
vn -0.6350 -0.0349 0.7717
vn -0.6787 -0.1763 0.7129
vn -0.6786 -0.1764 0.7130
vn -0.4952 -0.0556 0.8670
vn -0.3681 0.1261 0.9212
vn -0.3681 0.1262 0.9212
vn -0.0426 0.3564 0.9334
vn -0.0427 0.3564 0.9334
vn -0.5262 -0.5488 0.6495
vn -0.5263 -0.5488 0.6495
vn 0.0779 0.2839 0.9557
vn 0.0779 0.2840 0.9557
vn -0.5882 0.0142 0.8086
vn -0.5248 0.2639 0.8093
vn -0.4794 0.1537 0.8640
vn -0.3925 -0.3565 0.8478
vn -0.3925 -0.3566 0.8478
vn -0.9747 -0.0821 0.2080
vn -0.9747 -0.0822 0.2080
vn -0.9110 -0.1781 0.3719
vn -0.7016 -0.5504 0.4525
vn -0.1706 0.8999 0.4014
vn -0.5979 0.7499 0.2830
vn -0.9838 -0.1634 -0.0741
vn -0.9678 -0.2333 0.0940
vn -0.9678 -0.2333 0.0941
vn -0.9907 -0.1012 -0.0909
vn -0.1804 -0.6451 0.7425
vn -0.1803 -0.6450 0.7426
vn -0.0940 0.9657 -0.2421
vn -0.5954 0.7852 -0.1701
vn -0.1211 0.0792 -0.9895
vn -0.1212 0.0792 -0.9895
vn -0.1212 0.0793 -0.9895
vn -0.9864 -0.0758 -0.1458
vn -0.1043 0.3066 -0.9461
vn -0.5415 0.2596 -0.7996
vn -0.0271 -0.4736 -0.8803
vn -0.0272 -0.4735 -0.8803
vn -0.0272 -0.4736 -0.8803
vn -0.5486 -0.4457 -0.7074
vn -0.9898 -0.1402 0.0268
vn -0.6838 0.0573 -0.7274
s 0
usemtl Root
f 13//1 14//1 15//1
f 16//2 17//2 18//2
f 19//3 20//3 21//3
f 50//4 51//4 52//4
f 65//5 66//5 67//5
f 68//6 69//6 70//6
f 71//7 72//7 73//7
f 74//8 75//8 76//8
f 81//9 82//9 83//9
f 88//10 89//10 90//10
f 91//11 92//11 93//11
f 94//12 95//12 96//12
f 97//13 98//13 99//13
f 112//14 113//14 114//14
f 115//15 116//15 117//15
f 118//16 119//16 120//16
f 129//17 130//17 131//17
f 140//18 141//18 142//18
f 147//19 148//19 149//19
f 170//20 171//20 172//20
f 193//21 194//21 195//21
f 196//22 197//22 198//22
f 199//23 200//23 201//23
f 206//24 207//24 208//24
f 209//25 210//25 211//25
f 212//26 213//26 214//26
f 215//27 216//27 217//27
f 218//28 219//28 220//28
f 221//29 222//29 223//29
f 224//30 225//30 226//30
f 237//31 238//31 239//31
f 240//32 241//32 242//32
f 243//33 244//33 245//33
f 274//34 275//34 276//34
f 289//35 290//35 291//35
f 292//36 293//36 294//36
s 1
f 295//37 296//37 297//37
s 0
f 298//38 299//38 300//38
f 305//39 306//39 307//39
f 312//40 313//40 314//40
f 315//41 316//41 317//41
f 318//42 319//42 320//42
f 321//43 322//43 323//43
f 336//44 337//44 338//44
f 339//45 340//45 341//45
f 342//46 343//46 344//46
f 353//47 354//47 355//47
f 364//48 365//48 366//48
f 371//49 372//49 373//49
f 394//50 395//50 396//50
f 417//51 418//51 419//51
f 420//52 421//52 422//52
f 423//53 424//53 425//53
f 430//54 431//54 432//54
f 433//55 434//55 435//55
f 436//56 437//56 438//56
f 439//57 440//57 441//57
f 442//58 443//58 444//58
f 445//59 446//59 447//59
s 1
f 448//60 449//60 450//60
f 1//61 2//61 3//61
f 1//61 3//61 4//61
f 5//62 6//62 7//62
f 5//62 7//62 8//62
s 0
f 9//63 10//63 11//63
f 9//63 11//63 12//63
s 1
f 22//64 23//64 24//64
f 22//64 24//64 25//64
f 26//65 27//65 28//65
f 26//65 28//65 29//65
f 30//66 31//66 32//67
f 30//66 32//67 33//66
f 34//68 35//68 36//68
f 34//68 36//68 37//68
f 38//69 39//70 40//70
f 38//69 40//70 41//70
f 42//71 43//72 44//72
f 42//71 44//72 45//72
f 46//73 47//73 48//73
f 46//73 48//73 49//74
f 53//75 54//75 55//75
f 53//75 55//75 56//76
f 57//77 58//77 59//77
f 57//77 59//77 60//77
f 61//78 62//78 63//78
f 61//78 63//78 64//78
f 77//79 78//79 79//79
f 77//79 79//79 80//79
f 84//80 85//80 86//81
f 84//80 86//81 87//80
f 100//82 101//82 102//83
f 100//82 102//83 103//83
f 104//84 105//84 106//84
f 104//84 106//84 107//84
f 108//85 109//85 110//85
f 108//85 110//85 111//85
f 121//86 122//86 123//86
f 121//86 123//86 124//86
f 125//87 126//87 127//87
f 125//87 127//87 128//87
f 132//88 133//88 134//88
f 132//88 134//88 135//88
f 136//89 137//89 138//90
f 136//89 138//90 139//90
s 0
f 143//91 144//91 145//91
f 143//91 145//91 146//91
s 1
f 150//92 151//92 152//92
f 150//92 152//92 153//93
f 154//94 155//94 156//94
f 154//94 156//94 157//94
f 158//95 159//95 160//95
f 158//95 160//95 161//95
f 162//96 163//97 164//98
f 162//96 164//98 165//97
f 166//99 167//99 168//99
f 166//99 168//99 169//99
f 173//100 174//100 175//100
f 173//100 175//100 176//100
f 177//101 178//101 179//101
f 177//101 179//101 180//101
f 181//102 182//103 183//104
f 181//102 183//104 184//102
f 185//105 186//105 187//105
f 185//105 187//105 188//105
s 0
f 189//106 190//106 191//106
f 189//106 191//106 192//106
s 1
f 202//107 203//107 204//107
f 202//107 204//107 205//107
f 227//108 228//108 229//108
f 227//108 229//108 230//108
f 231//109 232//109 233//109
f 231//109 233//109 234//109
s 0
f 9//63 12//63 235//63
f 9//63 235//63 236//63
s 1
f 246//110 247//110 248//110
f 246//110 248//110 249//110
f 250//111 251//111 252//111
f 250//111 252//111 253//111
f 254//112 255//113 256//112
f 254//112 256//112 257//112
f 258//114 259//114 260//114
f 258//114 260//114 261//114
f 262//115 263//116 264//116
f 262//115 264//116 265//116
f 266//117 267//118 268//118
f 266//117 268//118 269//118
f 270//119 271//120 272//119
f 270//119 272//119 273//119
f 277//121 278//122 279//121
f 277//121 279//121 280//121
f 281//123 282//123 283//123
f 281//123 283//123 284//123
f 285//124 286//124 287//124
f 285//124 287//124 288//124
f 301//125 302//125 303//125
f 301//125 303//125 304//125
f 308//126 309//126 310//127
f 308//126 310//127 311//126
f 324//128 325//129 326//129
f 324//128 326//129 327//128
f 328//130 329//130 330//130
f 328//130 330//130 331//130
f 332//131 333//131 334//131
f 332//131 334//131 335//131
f 345//132 346//132 347//132
f 345//132 347//132 348//132
f 349//133 350//133 351//133
f 349//133 351//133 352//133
f 356//134 357//134 358//134
f 356//134 358//134 359//134
f 360//135 361//136 362//136
f 360//135 362//136 363//135
s 0
f 367//137 368//137 369//137
f 367//137 369//137 370//137
s 1
f 374//138 375//139 376//138
f 374//138 376//138 377//138
f 378//140 379//140 380//140
f 378//140 380//140 381//140
f 382//141 383//141 384//141
f 382//141 384//141 385//141
f 386//142 387//143 388//144
f 386//142 388//144 389//143
f 390//145 391//145 392//145
f 390//145 392//145 393//145
f 397//146 398//146 399//146
f 397//146 399//146 400//146
f 401//147 402//147 403//147
f 401//147 403//147 404//147
f 405//148 406//148 407//149
f 405//148 407//149 408//150
f 409//151 410//151 411//151
f 409//151 411//151 412//151
s 0
f 413//152 414//152 415//152
f 413//152 415//152 416//152
s 1
f 426//153 427//153 428//153
f 426//153 428//153 429//153
